<?xml version="1.0" encoding="UTF-8" standalone="no"?>
<svg xmlns="http://www.w3.org/2000/svg" xmlns:xlink="http://www.w3.org/1999/xlink" width="130.751mm" height="58.136mm" viewBox="4.804237 -68.226120 130.750900 58.135704">
    <path transform="matrix(0.255726,0,0,-0.254997,1.434858,-138.540649)" style="stroke:#000000;stroke-width:0.196081mm;fill:none" d="M391.8479,-503.237488C326.953552,-503.237488,262.030884,-502.708313,197.114578,-502.708313L63.499996,-502.708313L27.781248,-502.708313L17.991665,-502.708313C16.874065,-502.708313,15.07453,-503.041687,14.083347,-502.435791C13.03893,-501.798157,13.229563,-500.313812,13.229166,-499.268738L13.229166,-490.537476L13.229166,-453.495819C13.229166,-409.133118,13.49375,-364.767792,13.49375,-320.4104C13.49375,-309.5466,13.229166,-298.727814,13.229166,-287.866638L13.229166,-279.929138C13.229166,-279.140686,12.945321,-277.587585,13.653399,-277.026672C14.930621,-276.013306,19.040949,-276.75415,20.637499,-276.75415L40.216663,-276.75415L116.416656,-276.75415C214.589508,-276.75415,312.769226,-276.224976,410.897888,-276.224976L496.093719,-276.224976C502.980835,-276.224976,509.836151,-275.960388,516.731201,-275.960388C518.406006,-275.960388,522.808716,-275.18515,523.980835,-276.574219C524.676697,-277.399719,524.404114,-278.929016,524.404114,-279.929138L524.404114,-288.395813L524.404114,-321.997894L524.404114,-452.966644L524.404114,-490.008301L524.404114,-499.268738C524.404114,-500.308563,524.718994,-502.007141,523.980835,-502.8591C522.700256,-504.3302,518.003906,-503.502045,516.202026,-503.502045C508.783142,-503.502045,501.401276,-503.237488,493.977051,-503.237488L413.808319,-503.237488L399.520813,-503.237488C397.409454,-503.237488,394.633972,-503.679352,392.646942,-502.824707C391.556854,-502.35376,391.715607,-501.223999,390.895416,-500.649841C389.673035,-499.795227,387.641022,-500.467285,386.820801,-499.00415L387.085388,-498.210388"/>
</svg>
